<?xml version="1.0" encoding="UTF-8" standalone="no"?>
<!DOCTYPE svg PUBLIC "-//W3C//DTD SVG 1.1//EN" "http://www.w3.org/Graphics/SVG/1.1/DTD/svg11.dtd">
<svg width="100%" height="100%" viewBox="0 0 700 276" version="1.1" xmlns="http://www.w3.org/2000/svg" xmlns:xlink="http://www.w3.org/1999/xlink" xml:space="preserve" xmlns:serif="http://www.serif.com/" style="fill-rule:evenodd;clip-rule:evenodd;stroke-linejoin:round;stroke-miterlimit:2;">
    <g id="Board" transform="matrix(0.777778,0,0,1,308,-395)">
        <rect x="-396" y="395" width="900" height="276" style="fill:none;"/>
        <g transform="matrix(1.285714,0,0,1,-539.863791,-342.822515)">
            <g transform="matrix(26.936732,0,0,26.936732,-142.910684,385.305264)">
                <circle cx="17.5" cy="18.5" r="2.5" style="fill:rgb(163,190,140);"/>
            </g>
            <g transform="matrix(26.936732,0,0,26.936732,-8.661898,385.305264)">
                <circle cx="17.5" cy="18.5" r="2.5" style="fill:rgb(208,135,112);"/>
            </g>
            <g transform="matrix(1.23611,0,0,1.23611,-9.610626,-185.985005)">
                <path d="M181.625,848.065L181.625,919L159.293,919L159.293,819.394L176.266,819.394L178.521,830.731C179.53,829.667 180.676,828.575 181.96,827.456C185.161,824.666 188.921,822.285 193.238,820.312C197.556,818.339 201.948,817.352 206.415,817.352C208.648,817.352 210.77,817.488 212.779,817.761C214.789,818.033 216.315,818.509 217.358,819.189L217.358,837.559L210.435,837.559C200.31,837.559 192.941,838.954 188.325,841.744C185.675,843.346 183.441,845.453 181.625,848.065Z" style="fill:rgb(46,52,64);"/>
            </g>
            <g transform="matrix(1.23611,0,0,1.23611,349.389374,-185.985005)">
                <path d="M168.449,838.172L151.7,838.172L151.7,819.394L168.449,819.394L172.692,796.941L190.782,796.941L190.782,819.394L214.008,819.394L214.008,838.172L190.782,838.172L190.782,889.812C190.782,893.622 191.861,896.48 194.02,898.385C196.179,900.29 198.896,901.242 202.171,901.242C204.703,901.242 206.936,901.106 208.871,900.834C210.807,900.562 212.519,900.222 214.008,899.814L214.008,918.796C212.072,919.34 209.951,919.816 207.643,920.225C205.335,920.633 202.618,920.837 199.492,920.837C189.963,920.837 182.407,918.286 176.824,913.183C171.241,908.08 168.449,900.154 168.449,889.404L168.449,838.172Z" style="fill:rgb(46,52,64);"/>
            </g>
            <g transform="matrix(1.23611,0,0,1.23611,349.389374,-185.985005)">
                <path d="M274.306,921.041C266.713,921.041 259.231,919.408 251.862,916.142C244.492,912.877 238.425,907.298 233.66,899.405L250.633,889.2C254.802,894.234 258.747,897.874 262.47,900.12C266.192,902.365 271.03,903.488 276.986,903.488C281.75,903.488 285.435,902.365 288.04,900.12C290.646,897.874 291.949,895.119 291.949,891.853C291.949,889.676 291.316,887.771 290.05,886.138C288.785,884.505 286.589,882.974 283.462,881.546C280.336,880.117 275.869,878.722 270.063,877.361C259.343,874.776 251.08,871.374 245.273,867.156C239.467,862.937 236.564,856.27 236.564,847.153C236.564,841.71 238.053,836.743 241.03,832.253C244.008,827.762 248.326,824.156 253.983,821.435C259.641,818.713 266.341,817.352 274.083,817.352C283.313,817.352 291.204,819.087 297.755,822.557C304.306,826.027 309.443,830.143 313.165,834.906L295.968,846.54C293.884,844.091 290.832,841.676 286.812,839.294C282.792,836.913 277.73,835.722 271.626,835.722C267.904,835.722 264.48,836.675 261.353,838.58C258.226,840.485 256.663,843.139 256.663,846.54C256.663,849.942 258.115,852.698 261.018,854.807C263.921,856.916 269.244,858.787 276.986,860.42C290.088,863.278 299.393,866.986 304.902,871.544C310.41,876.103 313.165,882.124 313.165,889.608C313.165,896.14 311.341,901.753 307.693,906.447C304.045,911.142 299.281,914.748 293.4,917.265C287.519,919.782 281.155,921.041 274.306,921.041Z" style="fill:rgb(46,52,64);fill-rule:nonzero;"/>
            </g>
        </g>
    </g>
</svg>
