<?xml version="1.0" encoding="UTF-8" standalone="no"?>
<!DOCTYPE svg PUBLIC "-//W3C//DTD SVG 1.1//EN" "http://www.w3.org/Graphics/SVG/1.1/DTD/svg11.dtd">
<svg width="100%" height="100%" viewBox="0 0 76 76" version="1.1" xmlns="http://www.w3.org/2000/svg" xmlns:xlink="http://www.w3.org/1999/xlink" xml:space="preserve" xmlns:serif="http://www.serif.com/" style="fill-rule:evenodd;clip-rule:evenodd;stroke-linejoin:round;stroke-miterlimit:2;">
    <g id="Ebene" transform="matrix(1.013333,0,0,1.013333,-83.093333,0)">
        <rect x="82" y="0" width="75" height="75" style="fill:none;"/>
        <g transform="matrix(0.986842,0,0,0.986842,-0.5,-0.098684)">
            <path d="M121.6,26.1C118.5,26.1 115.7,27 113.2,28.5C116.3,29.2 118.6,32 118.6,35.3C118.6,39.2 115.5,42.3 111.6,42.3C109.3,42.3 107.3,41.2 106.1,39.6C106,40.3 105.9,41.1 105.9,41.8C105.9,50.5 112.9,57.5 121.6,57.5C130.3,57.5 137.3,50.5 137.3,41.8C137.3,33.1 130.3,26.1 121.6,26.1Z"/>
        </g>
        <g transform="matrix(0.986842,0,0,0.986842,-0.5,-0.098684)">
            <g>
                <path d="M121.6,75.7C116.4,75.7 111.5,74.7 107,72.7C102.5,70.7 98.5,68 95.1,64.6C91.7,61.2 89,57.2 87,52.7C85,48.2 84,43.2 84,38.1C84,32.9 85,28 87,23.5C89,19 91.7,15 95.1,11.6C98.5,8.2 102.5,5.5 107,3.5C111.5,1.5 116.5,0.5 121.6,0.5C126.8,0.5 131.7,1.5 136.2,3.5C140.7,5.5 144.7,8.2 148.1,11.6C151.5,15 154.2,19 156.2,23.5C158.2,28 159.2,33 159.2,38.1C159.2,43.3 158.2,48.2 156.2,52.7C154.2,57.2 151.5,61.2 148.1,64.6C144.7,68 140.7,70.7 136.2,72.7C131.7,74.7 126.8,75.7 121.6,75.7ZM121.6,11.1C117.9,11.1 114.3,11.8 111.1,13.2C107.8,14.6 104.9,16.6 102.5,19C100.1,21.4 98.1,24.3 96.7,27.6C95.3,30.9 94.6,34.4 94.6,38.1C94.6,41.8 95.3,45.4 96.7,48.6C98.1,51.9 100.1,54.8 102.5,57.2C104.9,59.6 107.8,61.6 111.1,63C114.4,64.4 117.9,65.1 121.6,65.1C125.3,65.1 128.8,64.4 132.1,63C135.4,61.6 138.3,59.7 140.7,57.2C143.1,54.8 145.1,51.9 146.5,48.6C147.9,45.3 148.6,41.8 148.6,38.1C148.6,34.4 147.9,30.9 146.5,27.6C145.1,24.3 143.1,21.4 140.7,19C138.3,16.6 135.4,14.7 132.1,13.2C128.8,11.8 125.3,11.1 121.6,11.1Z" style="fill-rule:nonzero;"/>
            </g>
        </g>
    </g>
</svg>
